<?xml version="1.0" standalone="no"?>
<!DOCTYPE svg PUBLIC "-//W3C//DTD SVG 20010904//EN"
 "http://www.w3.org/TR/2001/REC-SVG-20010904/DTD/svg10.dtd">
<svg version="1.0" xmlns="http://www.w3.org/2000/svg"
 width="294.000000pt" height="128.000000pt" viewBox="0 0 294.000000 128.000000"
 preserveAspectRatio="xMidYMid meet">

<g transform="translate(0.000000,128.000000) scale(0.100000,-0.100000)"
fill="#000000" stroke="none">
<path d="M740 1017 c0 -34 2 -36 43 -42 50 -9 102 -34 146 -71 l33 -27 25 25
25 25 -31 31 c-42 41 -124 80 -188 88 l-53 7 0 -36z"/>
<path d="M655 958 c-69 -25 -137 -85 -173 -153 -36 -68 -37 -168 -3 -237 42
-87 120 -146 214 -162 l37 -7 0 41 c0 37 -2 40 -29 40 -42 0 -122 58 -145 104
-37 76 -31 163 17 228 23 30 105 78 136 78 18 0 21 6 21 40 0 35 -3 40 -22 39
-13 0 -36 -5 -53 -11z"/>
<path d="M740 846 c0 -30 5 -36 53 -59 52 -26 52 -26 72 -7 15 16 17 24 9 38
-15 23 -84 62 -111 62 -19 0 -23 -5 -23 -34z"/>
<path d="M1064 856 c-10 -26 1 -51 23 -54 28 -4 50 32 32 54 -15 18 -48 18
-55 0z"/>
<path d="M1833 854 c-15 -39 38 -67 60 -32 8 12 7 21 -2 32 -17 21 -50 20 -58
0z"/>
<path d="M1281 743 c-26 -13 -36 -14 -39 -5 -2 7 -15 12 -28 12 l-25 0 3 -127
3 -128 28 -3 27 -3 0 100 c0 97 1 101 25 117 21 13 31 15 50 6 23 -11 24 -16
27 -114 3 -102 3 -103 28 -103 25 0 25 1 30 103 5 106 12 121 52 122 34 0 48
-39 48 -137 0 -93 0 -93 25 -93 l25 0 0 110 c0 96 -2 112 -20 130 -36 36 -80
35 -131 -2 -13 -9 -22 -7 -44 10 -33 26 -40 27 -84 5z"/>
<path d="M1725 738 c-26 -20 -29 -20 -40 -5 -7 9 -20 17 -29 17 -14 0 -16 -16
-16 -131 0 -130 0 -130 23 -127 20 3 22 9 27 91 4 79 8 91 29 109 14 10 33 17
43 15 18 -5 34 24 23 43 -10 16 -30 12 -60 -12z"/>
<path d="M1987 753 c-4 -3 -7 -17 -7 -29 0 -14 -9 -28 -22 -35 -20 -11 -20
-13 -5 -24 13 -9 17 -28 17 -78 0 -59 3 -68 24 -82 18 -12 30 -13 50 -5 15 5
24 15 21 21 -4 6 -13 8 -20 5 -23 -8 -35 17 -35 75 0 55 1 58 27 61 36 4 41
26 6 30 -23 2 -29 8 -31 36 -3 31 -11 39 -25 25z"/>
<path d="M1062 623 l3 -128 25 0 25 0 3 128 3 127 -31 0 -31 0 3 -127z"/>
<path d="M1840 619 c0 -130 0 -130 23 -127 21 3 22 7 25 131 l3 127 -26 0 -25
0 0 -131z"/>
<path d="M2400 683 c-17 -12 -25 -13 -28 -5 -2 7 -10 12 -18 12 -11 0 -14 -20
-14 -95 0 -78 3 -95 15 -95 12 0 15 13 15 58 0 64 19 102 51 102 12 0 19 7 19
20 0 24 -8 25 -40 3z"/>
<path d="M2100 619 c0 -39 5 -79 11 -90 16 -31 56 -42 90 -25 16 8 31 10 35 5
3 -5 13 -9 22 -9 15 0 17 13 17 95 1 93 0 95 -22 95 -22 0 -23 -3 -23 -75 0
-65 -3 -76 -20 -85 -51 -27 -77 18 -67 113 5 44 4 47 -19 47 -23 0 -24 -3 -24
-71z"/>
<path d="M820 595 c-6 -8 -27 -20 -46 -27 -29 -10 -34 -17 -34 -45 0 -29 3
-33 28 -33 35 0 112 49 112 71 0 15 -29 49 -42 49 -3 0 -11 -7 -18 -15z"/>
<path d="M916 454 c-37 -32 -116 -64 -158 -64 -14 0 -18 -8 -18 -35 0 -34 1
-35 38 -35 48 1 139 38 191 79 39 31 40 33 25 56 -23 36 -36 35 -78 -1z"/>
<path d="M2204 445 c-3 -8 -4 -20 -2 -27 3 -7 7 -1 10 15 6 29 1 36 -8 12z"/>
<path d="M2317 439 c4 -13 8 -18 11 -10 2 7 -1 18 -6 23 -8 8 -9 4 -5 -13z"/>
<path d="M2352 435 c0 -16 2 -22 5 -12 2 9 2 23 0 30 -3 6 -5 -1 -5 -18z"/>
</g>
</svg>
